<svg xmlns="http://www.w3.org/2000/svg" viewBox="0 0 52 52" className="w-16 h-16" > <defs> <linearGradient id="linear-gradient" x1="12.77" y1="51.31" x2="12.77" y2="3.59" gradientTransform="translate(0 51.89) scale(1 -1)" gradientUnits="userSpaceOnUse" > <stop offset="0" stopColor="#4400ce" /> <stop offset="1" stopColor="#290660" /> </linearGradient> </defs> <path fill="#290660" d="M25.54.01c-6.9,13.5-13.9,26.9-20.9,40.3C-.06,34.31-1.96,23.71,2.64,14.41,7.24,4.71,17.44-.29,25.54.01Z" /> <path fill="#290660" d="M46.44,40.31c-2.5-4.8-5-9.6-7.5-14.4l4-.2h6.8l-11.6-1.1C33.94,16.41,29.74,8.21,25.44.01c8.1-.3,18.3,4.7,22.9,14.4,4.7,9.3,2.8,19.9-1.9,25.9Z" /> <path fill="#290660" d="M43.14,44.61c-9,9-25,9.6-34.9.2,7.9-3.1,16.2-4.1,24.8-2.7-1-2.3-1.7-4.3-2.6-6.3-.1-.2-.8-.4-1.1-.4-3.8,0-7.4,0-11.1-.1-.8,0-1.5-.1-2.6-.2,1.7-2,3.5-3.6,5.8-4.6,2.7-1.2,5.6-2,8.4-3,.6-.2,1.1,0,1.4.8,2.4,4.6,4.7,9.1,7.1,13.6.4.9,1.1,1.4,1.9,1.7,1,.1,1.8.6,2.9,1Z" /> <path fill="#290660" d="M29.64,25.11c-3.4.9-6.6,1.7-9.9,2.5,1.8-3.3,3.8-6.9,5.7-10.5,1.4,2.7,2.8,5.4,4.2,8Z" /> </svg>